<svg width="220" height="27" viewBox="0 0 220 27" fill="none" xmlns="http://www.w3.org/2000/svg">
<path d="M7.68487 1.58807L7.521 2.13099V17.8836L7.68487 18.0431L15.1816 13.7209L7.68487 1.58807Z" fill="#CBCBCB"/>
<path d="M7.68294 1.58807L0.186035 13.7209L7.68294 18.0431V10.3972V1.58807Z" fill="#CBCBCB"/>
<path d="M7.68464 19.4274L7.59229 19.5373V25.1486L7.68464 25.4116L15.1859 15.1074L7.68464 19.4274Z" fill="#CBCBCB"/>
<path d="M7.68294 25.4116V19.4274L0.186035 15.1074L7.68294 25.4116Z" fill="#CBCBCB"/>
<path d="M7.68164 18.0429L15.1784 13.7207L7.68164 10.397V18.0429Z" fill="#CBCBCB"/>
<path d="M0.186035 13.7207L7.68294 18.0429V10.397L0.186035 13.7207Z" fill="#CBCBCB"/>
<path fill-rule="evenodd" clip-rule="evenodd" d="M54.2868 2.45216C56.1259 3.50072 57.6297 4.41534 57.6283 4.48465C57.627 4.55416 57.0609 4.91574 56.3704 5.28809L55.115 5.96512L53.2152 4.89542C52.1704 4.30721 51.1745 3.74259 51.0024 3.64076C50.7755 3.50682 50.0907 3.80336 48.5177 4.71676L46.3461 5.97792L45.2427 5.39622C44.6356 5.0761 44.0577 4.71879 43.9583 4.60192C43.8409 4.46392 44.9888 3.70051 47.236 2.42208C49.1381 1.33998 50.7502 0.475151 50.8186 0.500354C50.8869 0.525557 52.4475 1.4038 54.2868 2.45216ZM43.1489 6.18625C43.8227 6.54966 44.3753 6.90921 44.3766 6.98543C44.378 7.06185 43.82 7.42587 43.1367 7.79457L41.8944 8.46508V9.95429V11.4435L40.6002 10.7283L39.3061 10.0132L39.2461 8.5039L39.186 6.99458L40.4884 6.26735C41.2046 5.86715 41.8206 5.53667 41.8573 5.53281C41.8937 5.52894 42.4749 5.82284 43.1489 6.18625ZM51.7963 6.06878C53.3687 6.95047 53.3745 6.95982 52.6152 7.40575C52.2421 7.62485 51.6571 7.97038 51.3155 8.17342L50.6943 8.54273L49.3923 7.77282L48.0904 7.00311L49.2888 6.28178C49.9479 5.88504 50.5639 5.55252 50.6575 5.54297C50.751 5.53342 51.2635 5.77 51.7963 6.06878ZM60.9288 6.26085L62.186 6.996V8.4848V9.9736L60.8919 10.6903L59.5978 11.4069L59.5376 9.93986L59.4773 8.47281L58.2432 7.7718C57.4991 7.34925 57.0841 6.99722 57.198 6.88543C57.4355 6.6523 59.3419 5.54968 59.5311 5.53586C59.6084 5.53037 60.2374 5.85658 60.9288 6.26085ZM49.3484 9.73478C49.9748 10.1021 50.5962 10.4029 50.7293 10.4031C50.8622 10.4035 51.9133 9.85775 53.0649 9.19028L55.1585 7.97708L56.4464 8.75004L57.7343 9.5232V11.0104V12.4973L55.5159 13.737L53.2974 14.9768L53.29 17.5207L53.2825 20.0647L52.1054 20.7558C51.4579 21.1358 50.8231 21.4468 50.6943 21.4468C50.5655 21.4468 49.9307 21.1358 49.2832 20.7558L48.1061 20.0647L48.1007 17.5207L48.0953 14.9768L45.9266 13.7662L43.7579 12.5557V10.9901V9.42442L45.0476 8.71325L46.3376 8.00229L47.2735 8.5346C47.7885 8.82727 48.7221 9.36731 49.3484 9.73478ZM40.6408 12.7508L41.8944 13.4719V15.9938V18.5158L43.3955 19.3609C46.6343 21.1844 46.4496 20.9883 46.4496 22.6015C46.4496 23.3824 46.3883 24.0214 46.3134 24.0214C46.1542 24.0214 40.6098 20.8781 39.772 20.3129L39.2026 19.9288V15.9792C39.2026 13.8069 39.2442 12.0297 39.2949 12.0297C39.3459 12.0297 39.9515 12.3543 40.6408 12.7508ZM62.1844 16.0438L62.1827 20.058L59.8647 21.3791C58.5899 22.1058 57.0067 23.0029 56.3464 23.3726L55.1461 24.045V22.5348V21.0247L57.2684 19.8216L59.3907 18.6186L59.4943 16.0207L59.5978 13.4225L60.8402 12.7286C61.5234 12.3469 62.1059 12.0335 62.1343 12.0323C62.1626 12.0309 62.1852 13.8362 62.1844 16.0438ZM45.1069 15.301L46.2426 15.9302V17.4522C46.2426 18.2891 46.172 18.9436 46.0856 18.9062C45.9991 18.869 45.4402 18.5641 44.8435 18.2288L43.7583 17.619L43.7581 16.1455C43.7579 15.3351 43.8059 14.6719 43.8645 14.6719C43.9231 14.6719 44.4822 14.955 45.1069 15.301ZM57.8378 16.0709V17.4698L56.5806 18.205C55.8892 18.6093 55.2836 18.9401 55.2347 18.9401C55.186 18.9401 55.1477 18.2769 55.1498 17.4666L55.1533 15.993L56.2368 15.3504C57.7939 14.4268 57.8378 14.4465 57.8378 16.0709ZM49.494 22.8852L50.6933 23.5785L51.988 22.8677L53.2825 22.1572V23.6515V25.146L52.1876 25.7888C51.5853 26.1423 50.9939 26.461 50.8732 26.4968C50.7525 26.5327 50.0806 26.2476 49.3799 25.8634L48.1061 25.1647V23.6785C48.1061 22.861 48.1485 22.1921 48.2003 22.1921C48.2523 22.1921 48.8343 22.5041 49.494 22.8852Z" fill="#CBCBCB"/>
<g clip-path="url(#clip0_175_2573)">
<path d="M105.821 9.19832C105.347 8.93564 104.738 8.93564 104.196 9.19832L100.405 11.3655L97.8319 12.7446L94.1079 14.9118C93.634 15.1744 93.0246 15.1744 92.4829 14.9118L89.5715 13.2043C89.0975 12.9416 88.759 12.4162 88.759 11.8252V8.54161C88.759 8.01623 89.0298 7.49086 89.5715 7.1625L92.4829 5.52071C92.9569 5.25802 93.5662 5.25802 94.1079 5.52071L97.0194 7.22817C97.4933 7.49086 97.8319 8.01623 97.8319 8.60728V10.7744L100.405 9.32967V7.09683C100.405 6.57146 100.134 6.04608 99.5923 5.71773L94.1756 2.63116C93.7017 2.36847 93.0923 2.36847 92.5506 2.63116L86.9985 5.7834C86.4569 6.04608 86.186 6.57146 86.186 7.09683V13.27C86.186 13.7953 86.4569 14.3207 86.9985 14.6491L92.4829 17.7356C92.9569 17.9983 93.5662 17.9983 94.1079 17.7356L97.8319 15.6341L100.405 14.1894L104.129 12.0879C104.603 11.8252 105.212 11.8252 105.754 12.0879L108.665 13.7297C109.139 13.9924 109.478 14.5177 109.478 15.1088V18.3924C109.478 18.9177 109.207 19.4431 108.665 19.7715L105.821 21.4132C105.347 21.6759 104.738 21.6759 104.196 21.4132L101.285 19.7715C100.811 19.5088 100.472 18.9834 100.472 18.3924V16.2909L97.8996 17.7356V19.9028C97.8996 20.4282 98.1704 20.9535 98.7121 21.2819L104.196 24.3685C104.67 24.6312 105.28 24.6312 105.821 24.3685L111.306 21.2819C111.78 21.0192 112.118 20.4938 112.118 19.9028V13.664C112.118 13.1386 111.847 12.6132 111.306 12.2849L105.821 9.19832Z" fill="#CBCBCB"/>
</g>
<path d="M148.26 17.4138L151.977 23.2473L155.41 21.2575L150.529 13.5636L148.26 17.4138Z" fill="#CBCBCB"/>
<path d="M158.537 18.9174L158.534 17.3231L153.2 9.01575L151.222 12.3735L156.371 20.7009L158.232 19.622C158.415 19.4738 158.526 19.2561 158.537 19.0214L158.537 18.9174Z" fill="#CBCBCB"/>
<path d="M136.186 20.4209L138.815 21.9359L147.564 7.90548L146.079 7.86635C144.814 7.84844 143.451 8.17739 142.826 9.19837L137.857 16.8986L136.186 19.4666V20.4209Z" fill="#CBCBCB"/>
<path d="M152.613 7.90546L148.7 7.91971L139.846 22.5296L142.941 24.3112L143.782 22.884L152.613 7.90546Z" fill="#CBCBCB"/>
<path d="M160.186 7.8852C160.153 7.06682 159.71 6.31774 159.016 5.88153L149.288 0.286819C148.601 -0.0588715 147.743 -0.0593688 147.055 0.286653C146.974 0.327605 137.595 5.76746 137.595 5.76746C137.465 5.82963 137.34 5.90374 137.222 5.98797C136.603 6.43215 136.225 7.1222 136.186 7.88023V19.4667L137.857 16.8987L137.843 7.95849C137.845 7.92583 137.849 7.89349 137.855 7.86183C137.892 7.65143 138.01 7.46391 138.187 7.33707C138.231 7.30557 147.771 1.78348 147.801 1.76823C148.025 1.65565 148.31 1.65433 148.535 1.76475L158.137 7.28816C158.364 7.4329 158.507 7.67829 158.519 7.94655V19.0211C158.508 19.2558 158.415 19.4735 158.232 19.6218L156.371 20.7006L155.41 21.2574L151.977 23.2471L148.495 25.2649C148.307 25.3327 148.088 25.3289 147.902 25.2533L143.782 22.8838L142.941 24.311L146.643 26.4425C146.765 26.5122 146.875 26.5739 146.964 26.6243C147.103 26.702 147.197 26.7539 147.231 26.7702C147.494 26.898 147.872 26.9723 148.213 26.9723C148.526 26.9723 148.831 26.9149 149.12 26.8018L159.233 20.945C159.814 20.4952 160.155 19.8169 160.186 19.0823V7.8852Z" fill="#CBCBCB"/>
<path fill-rule="evenodd" clip-rule="evenodd" d="M209.764 7.10876L209.762 10.8386L204.79 14.4935C202.056 16.5038 199.819 18.1872 199.819 18.2346C199.819 18.282 200.114 18.3022 200.475 18.2792C200.836 18.2564 203.073 18.2771 205.446 18.3254L209.761 18.413L209.798 21.0145L209.836 23.616L214.805 18.6575C217.538 15.9303 219.792 13.6458 219.814 13.5807C219.835 13.5158 217.584 11.1938 214.81 8.42079L209.767 3.37897L209.764 7.10876ZM189.204 8.59115L184.186 13.5807L189.204 18.6007L194.223 23.6207L194.292 19.9637L194.361 16.3068L199.059 12.8322C201.642 10.9212 203.879 9.23997 204.029 9.09642C204.296 8.83998 204.209 8.83515 199.3 8.83515H194.298L194.26 6.21828L194.223 3.60155L189.204 8.59115Z" fill="#CBCBCB"/>
<defs>
<clipPath id="clip0_175_2573">
<rect width="26" height="22" fill="white" transform="translate(86.186 2.49982)"/>
</clipPath>
</defs>
</svg>
