<svg width="21" height="23" viewBox="0 0 21 23" fill="none" xmlns="http://www.w3.org/2000/svg">
<path d="M14 0C15.3063 0 16.4175 0.83485 16.8293 2.00009L7.12777 2C5.34473 2 4.69816 2.18565 4.04631 2.53427C3.39446 2.88288 2.88288 3.39446 2.53427 4.04631C2.18565 4.69816 2 5.34473 2 7.12777L2.00009 17.8293C0.83485 17.4175 0 16.3063 0 15V6C0 2.68629 2.68629 0 6 0H14ZM18 4C19.6569 4 21 5.34315 21 7V20C21 21.6569 19.6569 23 18 23H7C5.34315 23 4 21.6569 4 20V7C4 5.34315 5.34315 4 7 4H18ZM18 6H7C6.44772 6 6 6.44772 6 7V20C6 20.5523 6.44772 21 7 21H18C18.5523 21 19 20.5523 19 20V7C19 6.44772 18.5523 6 18 6Z" fill="#BABABA"/>
</svg>
