<svg width="22" height="22" viewBox="0 0 22 22" fill="none" xmlns="http://www.w3.org/2000/svg">
<path d="M17.9937 4.54668C16.7075 3.95306 15.3282 3.5157 13.8861 3.26521C13.8598 3.26038 13.8336 3.27246 13.82 3.29662C13.6427 3.61397 13.4462 4.02797 13.3086 4.35337C11.7575 4.11979 10.2143 4.11979 8.69502 4.35337C8.55741 4.02072 8.35377 3.61397 8.17559 3.29662C8.16207 3.27326 8.13582 3.26118 8.10957 3.26521C6.66823 3.5149 5.28894 3.95226 4.00191 4.54668C3.99078 4.55151 3.98123 4.55956 3.97487 4.57003C1.35866 8.50142 0.641967 12.3361 0.993552 16.1234C0.995143 16.1419 1.00548 16.1596 1.0198 16.1709C2.74591 17.4459 4.41793 18.2199 6.05892 18.733C6.08517 18.7411 6.11301 18.7314 6.12972 18.7096C6.51789 18.1764 6.86391 17.6142 7.16061 17.023C7.17811 16.9884 7.16141 16.9473 7.12561 16.9336C6.57676 16.7242 6.05415 16.4689 5.55143 16.1789C5.51166 16.1556 5.50848 16.0984 5.54507 16.071C5.65086 15.9913 5.75666 15.9083 5.85768 15.8245C5.87597 15.8092 5.90143 15.806 5.9229 15.8157C9.22558 17.3323 12.8011 17.3323 16.0648 15.8157C16.0863 15.8052 16.1117 15.8084 16.1308 15.8237C16.2318 15.9075 16.3376 15.9913 16.4442 16.071C16.4808 16.0984 16.4784 16.1556 16.4386 16.1789C15.9359 16.4745 15.4133 16.7242 14.8637 16.9328C14.8279 16.9465 14.812 16.9884 14.8295 17.023C15.1325 17.6134 15.4785 18.1756 15.8596 18.7088C15.8755 18.7314 15.9041 18.7411 15.9304 18.733C17.5793 18.2199 19.2513 17.4459 20.9774 16.1709C20.9925 16.1596 21.0021 16.1427 21.0037 16.1242C21.4245 11.7458 20.2989 7.94244 18.02 4.57084C18.0144 4.55956 18.0049 4.55151 17.9937 4.54668ZM7.65378 13.8174C6.65948 13.8174 5.84018 12.8992 5.84018 11.7715C5.84018 10.6439 6.64357 9.7257 7.65378 9.7257C8.67195 9.7257 9.4833 10.652 9.46739 11.7715C9.46739 12.8992 8.66399 13.8174 7.65378 13.8174ZM14.3594 13.8174C13.3651 13.8174 12.5457 12.8992 12.5457 11.7715C12.5457 10.6439 13.3491 9.7257 14.3594 9.7257C15.3775 9.7257 16.1889 10.652 16.173 11.7715C16.173 12.8992 15.3775 13.8174 14.3594 13.8174Z" fill="#343433"/>
</svg>
