<svg width="22" height="22" viewBox="0 0 22 22" fill="none" xmlns="http://www.w3.org/2000/svg">
<path fill-rule="evenodd" clip-rule="evenodd" d="M11.0002 0.6875C5.17589 0.6875 0.458496 5.40489 0.458496 11.2292C0.458496 15.8939 3.47605 19.8338 7.66636 21.2306C8.19344 21.3228 8.3911 21.0066 8.3911 20.7298C8.3911 20.4795 8.37792 19.6493 8.37792 18.7665C5.72933 19.254 5.04412 18.1208 4.83329 17.5278C4.71469 17.2247 4.20079 16.2892 3.75277 16.0388C3.38381 15.8411 2.85673 15.3536 3.73959 15.3404C4.56975 15.3272 5.16271 16.1047 5.36037 16.4209C6.30912 18.0154 7.82449 17.5673 8.43063 17.2906C8.52287 16.6054 8.79959 16.1442 9.10266 15.8807C6.75714 15.6171 4.3062 14.7079 4.3062 10.6757C4.3062 9.52932 4.71469 8.58057 5.38672 7.84265C5.28131 7.57911 4.91235 6.49859 5.49214 5.04911C5.49214 5.04911 6.37501 4.7724 8.3911 6.12963C9.23443 5.89245 10.1305 5.77385 11.0265 5.77385C11.9226 5.77385 12.8186 5.89245 13.6619 6.12963C15.678 4.75922 16.5609 5.04911 16.5609 5.04911C17.1407 6.49859 16.7717 7.57911 16.6663 7.84265C17.3383 8.58057 17.7468 9.51614 17.7468 10.6757C17.7468 14.7211 15.2827 15.6171 12.9372 15.8807C13.3193 16.2101 13.6488 16.8426 13.6488 17.8309C13.6488 19.2408 13.6356 20.3741 13.6356 20.7298C13.6356 21.0066 13.8332 21.336 14.3603 21.2306C18.5243 19.8338 21.5418 15.8807 21.5418 11.2292C21.5418 5.40489 16.8244 0.6875 11.0002 0.6875Z" fill="#343433"/>
</svg>
