<svg width="76" height="27" viewBox="0 0 76 27" fill="none" xmlns="http://www.w3.org/2000/svg">
<path d="M1.59572 15.1365C1.59572 18.7995 3.27929 22.0837 6.88911 23.6365C9.07608 24.6104 11.5352 24.7714 13.7125 24.7714C16.3134 24.7714 18.5433 24.4007 20.3596 23.6096C23.8594 22.1011 25.9733 18.8703 25.9733 15.1365V15.1144V15.0923V15.0702V15.0482V15.0261V15.004V14.9819V14.9598V14.9377V14.9156V14.8935V14.8715V14.8494V14.8273V14.8052V14.7831V14.761V14.739V14.7169V14.6948V14.6727V14.6506V14.6286V14.6065V14.5844V14.5623V14.5403V14.5182V14.4961V14.474V14.452V14.4299V14.4078V14.3857V14.3637V14.3416V14.3195V14.2974V14.2754V14.2533V14.2312V14.2091V14.1871V14.165V14.1429V14.1209V14.0988V14.0767V14.0546V14.0326V14.0105V13.9884V13.9664V13.9443V13.9222V13.9001V13.8781V13.856V13.8339V13.8118V13.7898V13.7677V13.7456V13.7236V13.7015V13.6794V13.6573V13.6353V13.6132V13.5911V13.569V13.547V13.5249V13.5028V13.4807V13.4587V13.4366V13.4145V13.3924V13.3704V13.3483V13.3262V13.3041V13.282V13.26V13.2379V13.2158V13.1937V13.1716V13.1495V13.1275V13.1054V13.0833V13.0612V13.0391V13.017V12.9949V12.9728V12.9508V12.9287V12.9066V12.8845V12.8624V12.8403V12.8182V12.7961V12.774V12.7519V12.7298V12.7077V12.6856V12.6635V12.6414V12.6193V12.5972V12.5751V12.553V12.5309V12.5088V12.4867V12.4646V12.4425V12.4203V12.3982V12.3761V12.354V12.3319V12.3098V12.2876V12.2655V12.2434V12.2213V12.1992V12.177V12.1549V12.1328V12.1106V12.0885V12.0664V12.0442V12.0221V12V11.9778V11.9557V11.9335V11.9114V11.8893V11.8671V11.845V11.8228V11.8007V11.7785V11.7564V11.7342V11.712V11.6899V11.6677V11.6456V11.6234V11.6012V11.5791V11.5569V11.5347V11.5125V11.4904V11.4682V11.446V11.4238V11.4017V11.3795V11.3573V11.3351V11.3129V11.2907V11.2685V11.2463V11.2241V11.2019V11.1797V11.1575V11.1353V11.1131V11.0909V11.0687V11.0465V11.0243V11.002V10.9798V10.9576V10.9354V10.9131V10.8909V10.8687V10.8464V10.8242V10.802V10.7797V10.7575V10.7352V10.713V10.6907V10.6685V10.6462V10.624V10.6017V10.5794V10.5572V10.5349V10.5126V10.4904V10.4681V10.4458V10.4235V10.4012V10.379V10.3567V10.3344V10.3121V10.2898V10.2675V10.2452V10.2229V10.2006V10.1783V10.1559V10.1336V10.1113V10.089V10.0667V10.0443V10.022V9.99966V9.97733V9.95499V9.93264V9.9103V9.88795V9.8656V9.84325V9.82089V9.79853V9.77616V9.7538V9.73143V9.70905V9.68668V9.6643V9.64192V9.61953V9.59714V9.57475V9.55236V9.52996V9.50756V9.48515V9.46274V9.44033V9.41792V9.3955V9.37308V9.35065V9.32823V9.30579V9.28336V9.26092V9.23848V9.21603V9.19358V9.17113V9.14868V9.12622V9.10375V9.08129V9.05882V9.03634V9.01387V8.99139V8.9689V8.94641V8.92392V8.90143V8.87893V8.85642V8.83392V8.81141V8.78889V8.76637V8.74385V8.72133V8.6988V8.67626V8.65373V8.63118V8.60864V8.58609V8.56354V8.54098V8.51842V8.49585V8.47329V8.45071V8.42814V8.40556V8.38297V8.36038V8.33779V8.31519V8.29259V8.26998V8.24737V8.22476V8.20214V8.17952V8.15689V8.13426V8.11163V8.08899V8.06634V8.0437V8.02104V7.99839V7.97573V7.95306V7.93039V7.90772V7.88504V7.86236V7.83967V7.81698V7.79428V7.77158V7.74887V7.72616V7.70345V7.68073V7.65801V7.63528V7.61255V7.58981V7.56707V7.54432V7.52157V7.49881V7.47605V7.45328V7.43051V7.40774V7.38496V7.36217V7.33939V7.31659V7.29379V7.27099V7.24818V7.22536V7.20255V7.17972V7.15689V7.13406V7.11122V7.08838V7.06553V7.04268V7.01982V6.99695V6.97409V6.95121V6.92833V6.90545V6.88256V6.85967V6.83677V6.81386V6.79095V6.76804V6.74512V6.72219V6.69926V6.67632V6.65338V6.63044V6.60748V6.58453V6.56156V6.5386V6.51562V6.49264V6.46966V6.44667V6.42368V6.40067V6.37767V6.35466V6.33164V6.30862V6.28559V6.26255V6.23952V6.21647V6.19342V6.17036V6.1473V6.12423V6.10116V6.07808V6.055V6.03191V6.00881V5.98571V5.9626V5.93949V5.91637V5.89324V5.87011V5.84698V5.82383V5.80068V5.77753V5.75437V5.7312V5.70803V5.68485V5.66167V5.63848V5.61528V5.59208V5.56887V5.54566V5.52244V5.49921V5.47598V5.45274V5.42949V5.40624V5.38298V5.35972V5.33645V5.31317V5.28989V5.2666V5.24331V5.22001V5.1967V5.17339V5.15007V5.12674V5.10341V5.08007V5.05672V5.03337V5.01001V4.98665V4.96327V4.9399V4.91651V4.89312V4.86972V4.84632V4.82291V4.79949V4.77607V4.75264V4.7292V4.70576V4.68231V4.65885V4.63538V4.61191V4.58844V4.56495V4.54146V4.51796V4.49446V4.47095V4.44743V4.42391V4.40037V4.37684V4.35329V4.32974V4.30618V4.28261V4.25904V4.23546V4.21187V4.18828V4.16468V4.14107V4.11745V4.09383V4.0702V4.04656V4.02292V3.99927V3.97561V3.95195V3.92827V3.90459V3.88091V3.85721V3.83351V3.8098V3.78609V3.76236V3.73863V3.7149V3.69115V3.6674V3.64364V3.61987V3.5961V3.57231C25.9733 1.83639 23.8068 1.10508 22.7213 2.40077L22.6758 2.45512L22.6384 2.51535L20.4737 6.00087C20.3907 5.96165 20.3069 5.92335 20.2224 5.886L20.2225 5.88592L20.2099 5.88056C18.1649 5.00964 15.9159 4.72125 13.7989 4.72125C11.3904 4.72125 9.25122 5.10706 7.408 5.91271L7.408 5.9127L7.40415 5.91441C7.31126 5.95547 7.2192 5.99775 7.12801 6.04123L4.92977 2.51403L4.89269 2.45452L4.84766 2.40077C3.76222 1.10508 1.59572 1.83638 1.59572 3.57231L1.59572 3.5725C1.59689 9.96155 1.59639 11.7133 1.596 13.0565C1.59581 13.692 1.59566 14.236 1.59572 15.1365ZM1.59572 15.1365H2.59572M1.59572 15.1365H2.59572M2.59572 15.1365C2.59566 14.2366 2.59581 13.6926 2.596 13.0572C2.59639 11.7138 2.59689 9.96146 2.59572 3.57231L19.9621 22.692C18.3109 23.4116 16.2277 23.7714 13.7125 23.7714C11.5604 23.7714 9.27679 23.6068 7.29011 22.7204C4.10962 21.355 2.59572 18.4795 2.59572 15.1365Z" stroke="black" stroke-width="2"/>
<path fill-rule="evenodd" clip-rule="evenodd" d="M22.4756 12.852C22.4756 14.8336 20.8692 16.44 18.8876 16.44C16.906 16.44 15.2997 14.8336 15.2997 12.852C15.2997 10.8704 16.906 9.26404 18.8876 9.26404C20.8692 9.26404 22.4756 10.8704 22.4756 12.852ZM12.1105 12.8521C12.1105 14.8336 10.5041 16.44 8.52254 16.44C6.54096 16.44 4.93457 14.8336 4.93457 12.8521C4.93457 10.8705 6.54096 9.2641 8.52254 9.2641C10.5041 9.2641 12.1105 10.8705 12.1105 12.8521ZM12.6647 18.9253C12.1582 18.5753 11.8268 17.9944 11.8268 17.337C11.8268 16.0599 15.7429 16.0599 15.7429 17.337C15.7429 17.9945 15.4114 18.5755 14.9047 18.9255C15.7519 19.7936 17.4534 20.2526 19.2782 18.5811C19.5049 18.3735 19.8589 18.3869 20.0688 18.611C20.2788 18.8351 20.2653 19.1852 20.0386 19.3928C17.6364 21.5931 14.9301 20.9096 13.7846 19.3649C12.6393 20.9099 9.9327 21.5937 7.53038 19.3931C7.30371 19.1855 7.29017 18.8355 7.50013 18.6114C7.71009 18.3872 8.06405 18.3738 8.29072 18.5814C10.1159 20.2533 11.8178 19.7938 12.6647 18.9253Z" fill="black"/>
<path d="M45.1479 6.58903V23.5535L42.3113 26.3626H35.0684L32.6724 23.9666V22.149H35.7569V23.0578L36.4454 23.7463H40.9619L42.0359 22.6447V18.3485L39.9154 20.3038H34.793L32.0665 17.5499V9.343L34.793 6.58903H40.1357L42.2287 8.62697V6.58903H45.1479ZM42.0359 11.3259L39.8327 9.26039H36.3352L35.1785 10.4171V16.4758L36.3352 17.6325H39.5849L42.0359 15.2365V11.3259ZM47.4813 0.640437H50.5933V20.3038H47.4813V0.640437ZM52.7945 3.64227V2.04497L53.9236 0.943376H55.6036L56.7327 2.04497V3.64227L55.6036 4.74386H53.9236L52.7945 3.64227ZM53.2076 6.58903H56.3196V20.3038H53.2076V6.58903ZM58.7898 6.58903H61.6815V8.73713L63.8571 6.58903H69.1172L71.8712 9.343V17.5499L69.1172 20.3038H63.8296L61.9018 18.679V26.1423H58.7898V6.58903ZM67.6576 17.6325L68.7592 16.5584V10.3344L67.6576 9.26039H64.3528L61.9018 11.7114V15.5395L64.2151 17.6325H67.6576Z" fill="black"/>
</svg>
