<svg width="20" height="16" viewBox="0 0 20 16" fill="none" xmlns="http://www.w3.org/2000/svg">
<path d="M18.75 13.5C19.4404 13.5 20 14.0596 20 14.75C20 15.4404 19.4404 16 18.75 16H1.25C0.559644 16 0 15.4404 0 14.75C0 14.0596 0.559644 13.5 1.25 13.5H18.75ZM18.75 7C19.4404 7 20 7.55964 20 8.25C20 8.94036 19.4404 9.5 18.75 9.5H1.25C0.559644 9.5 0 8.94036 0 8.25C0 7.55964 0.559644 7 1.25 7H18.75ZM18.75 0.5C19.4404 0.5 20 1.05964 20 1.75C20 2.44036 19.4404 3 18.75 3H1.25C0.559644 3 0 2.44036 0 1.75C0 1.05964 0.559644 0.5 1.25 0.5H18.75Z" fill="black"/>
</svg>
