<svg width="117" height="31" viewBox="0 0 117 31" fill="none" xmlns="http://www.w3.org/2000/svg">
<path fill-rule="evenodd" clip-rule="evenodd" d="M8.53289 4.81518L7.68138 8.79893L5.58288 8.8844C3.27172 8.97827 3.23637 9.00956 2.81163 11.334L2.61288 12.4205H4.76382H6.91447L6.50798 14.3762C5.84421 17.5704 6.05977 17.3459 3.65764 17.3459H1.52843L1.21465 18.8087C1.04198 19.6133 0.900879 20.3304 0.900879 20.4022C0.900879 20.4741 1.86509 20.5329 3.04342 20.5329H5.18624L4.35096 24.5167C3.89174 26.7079 3.44643 28.7936 3.36183 29.1523C3.21204 29.7856 3.27172 29.8042 5.46264 29.8042H7.71788L8.38107 26.5592C8.74584 24.7745 9.1784 22.6885 9.34239 21.9236L9.6408 20.5329H12.0849C14.4714 20.5329 14.5256 20.5483 14.3776 21.1848C14.2941 21.5432 13.896 23.4012 13.4924 25.3134C13.0891 27.2256 12.6899 29.0182 12.605 29.2972C12.4674 29.75 12.6937 29.8042 14.7252 29.8042H16.9996L17.9769 25.1685L18.9541 20.5329H21.0651C22.226 20.5329 23.236 20.435 23.3096 20.3156C23.3832 20.1962 23.5359 19.4792 23.6491 18.7221L23.8551 17.3459H21.7943C20.6536 17.3459 19.7332 17.2202 19.7332 17.0643C19.7332 16.9096 19.9479 15.8066 20.2101 14.6132L20.6867 12.4434L22.8689 12.3594L25.0511 12.2757L25.3916 10.7601C25.5787 9.92655 25.6642 9.17702 25.5816 9.09416C25.4988 9.01159 24.5403 8.94379 23.4513 8.94379C22.3625 8.94379 21.4715 8.89918 21.4715 8.84471C21.4715 8.78995 21.8491 6.96467 22.3103 4.78852L23.1494 0.831421H20.9054H18.6615L17.8294 4.88761L16.9973 8.94379H14.5989C13.2795 8.94379 12.2003 8.84587 12.2003 8.7265C12.2003 8.60713 12.57 6.78185 13.0219 4.67031L13.8436 0.831421H11.6141H9.38469L8.53289 4.81518ZM65.2204 8.83688C63.3543 9.19412 61.6976 9.92858 60.8554 10.7723C58.9681 12.6619 58.2252 15.8834 59.2289 17.8245C59.7301 18.794 61.2451 20.2119 63.2619 21.5997C65.1521 22.9 65.6579 23.748 65.2468 24.9275C64.7256 26.4228 64.1145 26.9069 62.7482 26.9069C61.1663 26.9069 60.7569 26.4126 60.9464 24.7316L61.093 23.4302H58.8285H56.5642L56.369 24.7319C55.9772 27.3435 56.8374 29.1891 58.7383 29.8164C60.2467 30.3141 64.8087 30.0505 66.0896 29.3916C67.7211 28.5526 68.9463 27.1934 69.5669 25.5348C70.2617 23.6779 70.2944 22.6085 69.7002 21.1859C69.1054 19.7625 68.5616 19.1891 66.6691 17.9897C64.2333 16.4457 63.4821 15.6417 63.4821 14.5784C63.4821 12.7688 65.5044 11.3523 66.9689 12.1363C67.4913 12.4159 67.5762 12.6778 67.491 13.7489L67.3893 15.0281H69.4748C70.6218 15.0281 71.637 14.9038 71.7312 14.7517C71.8251 14.5996 71.9207 13.764 71.9436 12.8945C71.9885 11.1837 71.5156 10.1543 70.3266 9.3752C69.6283 8.91772 66.5129 8.58917 65.2204 8.83688ZM28.3019 9.19846C28.2152 9.3384 27.2232 13.804 26.097 19.1216C24.9709 24.4393 23.982 29.0182 23.9 29.2972C23.7665 29.7497 23.9951 29.8042 26.0298 29.8042H28.3091L28.6788 27.9934C28.8822 26.9976 29.3174 24.9113 29.6459 23.3577L30.2431 20.5329H32.6973C35.0977 20.5329 35.1479 20.5471 34.9882 21.1848C34.8984 21.5432 34.4429 23.6295 33.9759 25.8204L33.1273 29.8042H35.3579H37.5885L39.7114 19.7361C40.879 14.1986 41.8484 9.53774 41.8658 9.37839C41.8843 9.20832 41.0012 9.08866 39.7253 9.08866H37.5535L36.6779 13.1448L35.8026 17.201L33.4176 17.2851C32.0278 17.3343 31.0326 17.2532 31.0326 17.0909C31.0326 16.938 31.3585 15.3053 31.7569 13.4627C32.7929 8.67116 32.8703 8.94379 30.4702 8.94379C29.364 8.94379 28.3885 9.05824 28.3019 9.19846ZM43.6351 19.2755C40.8468 24.9582 38.5655 29.6518 38.5655 29.7057C38.5655 29.7599 39.5818 29.8042 40.8239 29.8042H43.0826L46.5194 22.7032C48.4098 18.798 50.0146 15.6606 50.0856 15.7318C50.1966 15.8428 50.9916 27.3157 51.0154 29.1523C51.0235 29.7732 51.1336 29.8042 53.3416 29.8042C55.3575 29.8042 55.6588 29.7381 55.6551 29.2972C55.6525 29.0182 55.3937 24.6181 55.08 19.5189C54.7662 14.4196 54.5075 9.95407 54.5048 9.59568C54.5005 8.9635 54.4133 8.94379 51.6026 8.94379H48.7048L43.6351 19.2755ZM74.9359 9.30595C74.7157 9.98826 70.7218 29.0793 70.7235 29.442C70.7247 29.699 71.3482 29.8042 72.8692 29.8042H75.0129L75.4724 27.7037C75.7248 26.5485 76.162 24.4949 76.4433 23.1404L76.9553 20.6778L79.3449 20.5937C80.8095 20.5422 81.7349 20.6221 81.7349 20.8009C81.7349 20.9611 81.3438 22.9266 80.8657 25.1685C80.3877 27.4105 79.9965 29.3708 79.9965 29.5246C79.9965 29.6793 80.9645 29.8042 82.164 29.8042C84.1735 29.8042 84.3425 29.7567 84.4836 29.1523C84.9274 27.2499 88.6884 9.39084 88.6884 9.18543C88.6884 9.05244 87.7192 8.94379 86.5348 8.94379C84.7333 8.94379 84.3575 9.02666 84.2347 9.45082C84.1538 9.72983 83.7343 11.62 83.3023 13.6519L82.5172 17.3459H80.0924C77.7262 17.3459 77.6715 17.3302 77.8192 16.694C78.1339 15.3416 79.4171 9.237 79.4171 9.09358C79.4171 9.0113 78.4352 8.94379 77.2351 8.94379C75.7451 8.94379 75.0158 9.05853 74.9359 9.30595ZM91.1484 9.30595C91.0772 9.50529 90.0985 14.0358 88.9735 19.374C87.8484 24.7122 86.8718 29.243 86.8034 29.442C86.706 29.7239 87.9835 29.8042 92.5704 29.8042H98.4623L98.7477 28.361C98.9047 27.5672 98.9653 26.8501 98.8827 26.7675C98.7999 26.685 97.1927 26.6172 95.311 26.6172H91.8899L92.0741 25.6756C92.1755 25.1578 92.4687 23.8213 92.7254 22.7059L93.1922 20.6778L96.4108 20.5961L99.6294 20.5146L99.7945 19.6883C99.8855 19.2341 100.045 18.521 100.15 18.1041L100.34 17.3459H97.0905C93.867 17.3459 93.842 17.3407 93.9973 16.694C94.0837 16.3356 94.3192 15.2274 94.5215 14.2313L94.8885 12.4205H98.3146C102.144 12.4205 101.967 12.5231 102.423 10.0303L102.622 8.94379H96.9497C92.6742 8.94379 91.2458 9.03303 91.1484 9.30595ZM104.2 9.27148C104.122 9.48964 103.107 14.1661 101.945 19.6637L99.8316 29.6593L104.157 29.7396C109.466 29.8381 110.745 29.5043 112.75 27.5C114.376 25.874 115.135 24.0305 116.097 19.374C117.301 13.5484 116.853 10.7575 114.534 9.63856C113.093 8.94351 104.428 8.63552 104.2 9.27148ZM16.1153 13.0724C16.0319 13.4308 15.7911 14.5066 15.5808 15.4627L15.1981 17.201L12.7954 17.2856L10.3929 17.3705L10.5949 16.2716C10.7061 15.6675 10.9281 14.5535 11.088 13.7967L11.3792 12.4205H13.8233C16.2098 12.4205 16.264 12.4359 16.1153 13.0724ZM111.728 13.0066C112.448 13.8025 112.368 15.9115 111.465 19.9195C110.275 25.2045 109.214 26.6172 106.437 26.6172C105.292 26.6172 104.887 26.5166 104.981 26.255C105.053 26.056 105.747 22.8614 106.524 19.1567L107.937 12.4205H109.567C110.836 12.4205 111.315 12.5506 111.728 13.0066Z" fill="black"/>
</svg>
