<svg width="135" height="29" viewBox="0 0 135 29" fill="none" xmlns="http://www.w3.org/2000/svg">
<g clip-path="url(#clip0_310_1587)">
<path d="M24.52 9.45037C23.943 9.09638 23.1928 9.09638 22.558 9.45037L18.0568 12.1643L14.9984 13.9342L10.4973 16.6482C9.92025 17.0022 9.17003 17.0022 8.53526 16.6482L4.95744 14.5243C4.38038 14.1703 3.97642 13.5213 3.97642 12.8133V8.62438C3.97642 7.9164 4.32266 7.26742 4.95744 6.91342L8.47755 4.84846C9.05462 4.49447 9.80477 4.49447 10.4396 4.84846L13.9597 6.91342C14.5367 7.26742 14.9407 7.9164 14.9407 8.62438V11.3383L17.9991 9.50936V6.79542C17.9991 6.08744 17.653 5.43846 17.0181 5.08446L10.4973 1.19054C9.92025 0.836551 9.17003 0.836551 8.53526 1.19054L1.89899 5.08446C1.26421 5.43846 0.917969 6.08744 0.917969 6.79542V14.6423C0.917969 15.3502 1.26421 15.9992 1.89899 16.3532L8.53526 20.2471C9.11233 20.6012 9.86255 20.6012 10.4973 20.2471L14.9984 17.5921L18.0568 15.7632L22.558 13.1083C23.1351 12.7543 23.8853 12.7543 24.52 13.1083L28.0401 15.1733C28.6172 15.5273 29.0212 16.1762 29.0212 16.8842V21.0731C29.0212 21.7811 28.6749 22.4301 28.0401 22.784L24.52 24.9081C23.943 25.2621 23.1928 25.2621 22.558 24.9081L19.0379 22.8431C18.4608 22.4891 18.0568 21.8401 18.0568 21.1321V18.4182L14.9984 20.2471V22.9611C14.9984 23.669 15.3446 24.318 15.9795 24.672L22.6157 28.566C23.1928 28.92 23.943 28.92 24.5777 28.566L31.214 24.672C31.7911 24.318 32.195 23.669 32.195 22.9611V15.1142C32.195 14.4063 31.8488 13.7573 31.214 13.4033L24.52 9.45037Z" fill="#7950DD"/>
<path d="M44.3788 26.3218V19.8074C45.0826 20.6969 46.3596 21.194 47.8454 21.194C51.6246 21.194 54.1789 18.4993 54.1789 14.3918C54.1789 10.2843 51.8331 7.5896 48.1581 7.5896C46.4639 7.5896 45.1607 8.21749 44.3788 9.23782V7.7989H40.7559V26.3218H44.3788ZM47.4023 18.0545C45.4475 18.0545 44.1703 16.5894 44.1703 14.3918C44.1703 12.168 45.4475 10.7029 47.4023 10.7029C49.3049 10.7029 50.6082 12.168 50.6082 14.3918C50.6082 16.5894 49.3049 18.0545 47.4023 18.0545Z" fill="black"/>
<path d="M62.4057 21.194C66.4457 21.194 69.3388 18.3161 69.3388 14.3918C69.3388 10.4674 66.4457 7.5896 62.4057 7.5896C58.3658 7.5896 55.4727 10.4674 55.4727 14.3918C55.4727 18.3161 58.3658 21.194 62.4057 21.194ZM62.4057 18.0545C60.4509 18.0545 59.1216 16.5633 59.1216 14.3918C59.1216 12.1942 60.4509 10.7029 62.4057 10.7029C64.3606 10.7029 65.6899 12.1942 65.6899 14.3918C65.6899 16.5633 64.3606 18.0545 62.4057 18.0545Z" fill="black"/>
<path d="M75.1519 20.9849V2.06958H71.5291V20.9849H75.1519Z" fill="black"/>
<path d="M86.0427 7.79895L83.306 16.3017L80.5432 7.79895H76.842L81.6118 20.8801L79.6831 26.3218H83.1496L85.0002 20.9324L89.7699 7.79895H86.0427Z" fill="black"/>
<path d="M99.9452 9.10701C99.215 8.19133 97.9123 7.5896 96.3224 7.5896C92.4903 7.5896 90.1711 10.2843 90.1711 14.3918C90.1711 18.4993 92.4903 21.194 96.374 21.194C97.9123 21.194 99.2929 20.6184 99.9714 19.6504V21.3771C99.9714 22.6067 99.1634 23.4701 98.0681 23.4701H92.0211V26.3218H98.6416C101.613 26.3218 103.594 24.5166 103.594 21.7695V7.7989H99.9452V9.10701ZM96.9475 18.0545C95.0188 18.0545 93.7414 16.6156 93.7414 14.3918C93.7414 12.168 95.0188 10.7029 96.9475 10.7029C98.9025 10.7029 100.18 12.168 100.18 14.3918C100.18 16.6156 98.9025 18.0545 96.9475 18.0545Z" fill="black"/>
<path d="M112.727 21.194C116.768 21.194 119.66 18.3161 119.66 14.3918C119.66 10.4674 116.768 7.5896 112.727 7.5896C108.688 7.5896 105.794 10.4674 105.794 14.3918C105.794 18.3161 108.688 21.194 112.727 21.194ZM112.727 18.0545C110.772 18.0545 109.443 16.5633 109.443 14.3918C109.443 12.1942 110.772 10.7029 112.727 10.7029C114.682 10.7029 116.011 12.1942 116.011 14.3918C116.011 16.5633 114.682 18.0545 112.727 18.0545Z" fill="black"/>
<path d="M125.291 20.9847V13.7639C125.291 12.0633 126.412 10.8337 128.002 10.8337C129.513 10.8337 130.529 11.9849 130.529 13.5808V20.9847H134.178V12.7697C134.178 9.73491 132.25 7.5896 129.278 7.5896C127.48 7.5896 126.02 8.34831 125.291 9.63026V7.7989H121.642V20.9847H125.291Z" fill="black"/>
</g>
<defs>
<clipPath id="clip0_310_1587">
<rect width="133.951" height="27.9064" fill="white" transform="translate(0.917969 0.925049)"/>
</clipPath>
</defs>
</svg>
