<svg width="22" height="22" viewBox="0 0 22 22" fill="none" xmlns="http://www.w3.org/2000/svg">
<path d="M21.0454 4.67417C20.306 5.00758 19.5116 5.23195 18.6779 5.33315C19.5294 4.81538 20.1823 3.99559 20.4899 3.01811C19.694 3.49744 18.8116 3.84575 17.872 4.03403C17.1202 3.22051 16.0493 2.71216 14.864 2.71216C12.5877 2.71216 10.7426 4.58631 10.7426 6.89664C10.7426 7.22456 10.7796 7.54463 10.8492 7.8498C7.42392 7.67564 4.3873 6.00938 2.35362 3.47704C1.99974 4.09522 1.79652 4.81381 1.79652 5.58183C1.79652 7.03314 2.52361 8.31422 3.62931 9.06419C2.95399 9.04223 2.31808 8.85395 1.76252 8.54094C1.76252 8.55898 1.76252 8.57545 1.76252 8.5935C1.76252 10.6214 3.1827 12.3128 5.0688 12.6964C4.72342 12.7921 4.35871 12.8431 3.98242 12.8431C3.71739 12.8431 3.45855 12.8164 3.20743 12.7686C3.73207 14.4309 5.25424 15.6414 7.05767 15.6751C5.64754 16.7977 3.87038 17.4669 1.93869 17.4669C1.60644 17.4669 1.27806 17.4473 0.955078 17.4081C2.77936 18.595 4.94517 19.2877 7.27324 19.2877C14.8547 19.2877 18.9994 12.9113 18.9994 7.38146C18.9994 7.20024 18.9955 7.01981 18.9878 6.84016C19.7937 6.24943 20.4929 5.5128 21.0454 4.67417Z" fill="#343433"/>
</svg>
