<svg width="101" height="25" viewBox="0 0 101 25" fill="none" xmlns="http://www.w3.org/2000/svg">
<path fill-rule="evenodd" clip-rule="evenodd" d="M0.868671 1.30549C0.864436 1.59343 1.60001 7.02006 2.50435 13.3658C3.65972 21.4748 4.38077 24.9028 4.93185 24.9028C5.36375 24.9028 5.71641 24.6837 5.71641 24.4153C5.71641 24.1469 7.47005 21.196 9.61384 17.8564L13.5107 11.7857L15.4071 18.3439C16.4505 21.9513 17.5242 24.9028 17.7934 24.9028C18.2689 24.9028 29.4065 3.33601 29.813 1.62853C29.963 0.995454 29.2661 0.829061 27.0909 0.978555L24.1661 1.17875L21.6316 6.54168C20.2373 9.49191 18.9797 11.6856 18.8363 11.4165C18.6929 11.148 17.9561 8.66189 17.1994 5.89106C16.4427 3.12087 15.6139 0.85376 15.3581 0.85376C15.1022 0.85376 13.3891 3.38931 11.5514 6.48838C7.85779 12.7184 8.11911 12.8016 7.12525 5.07859L6.62378 1.17875L3.75046 0.980504C2.16983 0.871959 0.87351 1.0182 0.868671 1.30549ZM31.419 1.51478C31.2097 1.87812 30.1463 7.14291 29.055 13.2143L27.0715 24.2528L29.8529 24.2489L32.6349 24.2457L34.6196 13.0369C35.7108 6.87252 36.5952 1.60903 36.5855 1.34124C36.5571 0.60092 31.8539 0.758864 31.419 1.51478ZM39.3209 2.3162C39.1594 3.12087 38.3162 7.72723 37.4475 12.5533C36.5789 17.3793 35.7235 21.9864 35.5469 22.7904C35.2493 24.1449 35.4314 24.2528 38.0022 24.2528C41.0951 24.2528 40.7878 24.7754 42.1918 17.1311L42.9625 12.9342L47.7491 18.9185C50.3817 22.2099 52.7239 24.9028 52.9532 24.9028C53.1824 24.9028 54.2326 20.0039 55.2863 14.0157C56.3401 8.02752 57.3466 2.59959 57.5227 1.95352C57.8045 0.917457 57.4991 0.801762 54.9482 0.978555L52.0543 1.17875L51.2292 6.05355C50.7755 8.73469 50.1996 11.1513 49.9504 11.4243C49.7006 11.6966 47.5235 9.42951 45.1117 6.38699C42.7006 3.34381 40.4769 0.85376 40.1708 0.85376C39.8647 0.85376 39.4824 1.51153 39.3209 2.3162ZM60.5756 1.34124C60.4335 1.60903 60.1353 2.91223 59.9126 4.23687L59.5086 6.64568L63.8524 6.83677L68.1957 7.02851L62.0601 15.0752C58.6853 19.5009 55.9239 23.3766 55.9239 23.6873C55.9239 23.9987 60.007 24.2528 64.9975 24.2528H74.0712V22.6812C74.0712 21.8167 74.2321 20.6591 74.4281 20.1092C74.7275 19.2721 74.0252 19.079 70.1096 18.9191L65.4337 18.728L71.8366 10.3213C75.3584 5.69801 78.1023 1.67598 77.9341 1.38414C77.5512 0.718565 60.9283 0.677617 60.5756 1.34124ZM83.1333 2.12121C78.7816 4.59436 75.3239 9.89359 75.2943 14.1353C75.2743 17.0232 77.4199 21.1368 79.8807 22.9269C81.4643 24.0793 83.1145 24.5947 85.7876 24.7715C88.9592 24.9808 89.9778 24.7461 92.8233 23.1485C97.5773 20.4791 100.082 16.3563 100.082 11.2026C100.082 7.84163 99.8542 7.12016 98.126 5.00449C97.0498 3.68764 95.2889 2.2148 94.2134 1.73187C91.3891 0.463775 85.6969 0.663967 83.1333 2.12121ZM92.1223 7.09416C96.6137 10.4747 93.5601 18.6344 87.4759 19.5113C85.3037 19.8245 84.7944 19.6257 83.0982 17.8031C81.4039 15.9825 81.2169 15.4314 81.5073 13.1077C82.1993 7.56084 88.2145 4.15303 92.1223 7.09416ZM85.9969 9.11623C85.787 10.294 86.0145 11.1558 86.6823 11.7161C87.6036 12.4876 87.5903 12.6287 86.5184 13.5198C85.5892 14.2913 84.677 17.7531 85.4023 17.7531C86.0066 17.7531 92.2184 13.6413 92.2184 13.241C92.2184 12.7912 86.94 7.3535 86.5033 7.3535C86.3974 7.3535 86.1693 8.14646 85.9969 9.11623Z" fill="black"/>
</svg>
